<?xml version="1.0" encoding="UTF-8" standalone="no"?>
<!DOCTYPE svg PUBLIC "-//W3C//DTD SVG 1.1//EN" "http://www.w3.org/Graphics/SVG/1.1/DTD/svg11.dtd">
<svg width="100%" height="100%" viewBox="0 0 512 512" version="1.1" xmlns="http://www.w3.org/2000/svg" xmlns:xlink="http://www.w3.org/1999/xlink" xml:space="preserve" xmlns:serif="http://www.serif.com/" style="fill-rule:evenodd;clip-rule:evenodd;stroke-linejoin:round;stroke-miterlimit:2;">
    <path d="M512,102.4C512,45.884 466.116,0 409.6,0L102.4,0C45.884,0 0,45.884 0,102.4L0,409.6C0,466.116 45.884,512 102.4,512L409.6,512C466.116,512 512,466.116 512,409.6L512,102.4Z" style="fill:rgb(255,235,59);"/>
    <g id="bars-solid.svg" transform="matrix(0.850945,0,0,0.850945,256,256)">
        <g transform="matrix(1,0,0,1,-224,-256)">
            <path d="M0,96C0,78.3 14.3,64 32,64L416,64C433.7,64 448,78.3 448,96C448,113.7 433.7,128 416,128L32,128C14.3,128 0,113.7 0,96ZM0,256C0,238.3 14.3,224 32,224L416,224C433.7,224 448,238.3 448,256C448,273.7 433.7,288 416,288L32,288C14.3,288 0,273.7 0,256ZM448,416C448,433.7 433.7,448 416,448L32,448C14.3,448 0,433.7 0,416C0,398.3 14.3,384 32,384L416,384C433.7,384 448,398.3 448,416Z" style="fill:rgb(33,33,33);fill-rule:nonzero;"/>
        </g>
    </g>
</svg>
